<?xml version="1.0" encoding="utf-8"?>
<!-- Generator: Adobe Illustrator 25.0.1, SVG Export Plug-In . SVG Version: 6.00 Build 0)  -->
<svg version="1.1" id="greenstar" xmlns="http://www.w3.org/2000/svg" xmlns:xlink="http://www.w3.org/1999/xlink" x="0px" y="0px"
	 viewBox="0 0 1920 1080" style="enable-background:new 0 0 1920 1080;" xml:space="preserve">
<style type="text/css">
	.st0{fill:#0CFF30;}
</style>
<polygon class="st0" points="456.06,618.99 463.03,637.85 475.47,622.07 476.27,642.15 492.98,630.99 487.53,650.33 506.88,644.88 
	495.72,661.6 515.8,662.39 500.02,674.84 518.87,681.8 500.02,688.76 515.8,701.21 495.72,702.01 506.88,718.72 487.53,713.27 
	492.98,732.62 476.27,721.45 475.47,741.54 463.03,725.76 456.06,744.61 449.1,725.76 436.65,741.54 435.86,721.45 419.15,732.62 
	424.59,713.27 405.25,718.72 416.41,702.01 396.33,701.21 412.11,688.76 393.25,681.8 412.11,674.84 396.33,662.39 416.41,661.6 
	405.25,644.88 424.59,650.33 419.15,630.99 435.86,642.15 436.65,622.07 449.1,637.85 "/>
</svg>
